# AST/ASF file generated using VICON BodyLanguage
# -----------------------------------------------
:version 1.10
:name VICON
:units
  mass 1.0
  length 0.45
  angle deg
:documentation
   .ast/.asf automatically generated from VICON data using
   VICON BodyBuilder and BodyLanguage model FoxedUp or BRILLIANT.MOD
:root
   order TX TY TZ RX RY RZ
   axis XYZ
   position 0 0 0  
   orientation 0 0 0 
:bonedata
  begin
     id 1 
     name lhipjoint
     direction 0.566809 -0.746272 0.349008 
     length 2.40479 
     axis 0 0 0  XYZ
  end
  begin
     id 2 
     name lfemur
     direction 0.34202 -0.939693 0  
     length 7.1578  
     axis 0 0 20  XYZ
    dof rx ry rz
    limits (-160.0 20.0)
           (-70.0 70.0)
           (-60.0 70.0)
  end
  begin
     id 3 
     name ltibia
     direction 0.34202 -0.939693 0   
     length 7.49137   
     axis 0 0 20   XYZ
    dof rx
    limits (-10.0 170.0)
  end
  begin
     id 4 
     name lfoot
     direction 0.0665746 -0.182912 0.980873   
     length 2.36784   
     axis -90 7.62852e-016 20   XYZ
    dof rx rz
    limits (-45.0 90.0)
           (-70.0 20.0)
  end
  begin
     id 5 
     name ltoes
     direction 1.53601e-011 -4.22058e-011 1   
     length 1.18966   
     axis -90 7.62852e-016 20   XYZ
    dof rx
    limits (-90.0 20.0)
  end
  begin
     id 6 
     name rhipjoint
     direction -0.550236 -0.756381 0.353735   
     length 2.37265  
     axis 0 0 0  XYZ 
  end
  begin
     id 7 
     name rfemur
     direction -0.34202 -0.939693 0   
     length 7.43386   
     axis 0 0 -20   XYZ
    dof rx ry rz
    limits (-160.0 20.0)
           (-70.0 70.0)
           (-70.0 60.0)
  end
  begin
     id 8 
     name rtibia
     direction -0.34202 -0.939693 0   
     length 7.50908   
     axis 0 0 -20   XYZ
    dof rx
    limits (-10.0 170.0)
 end
 begin
     id 9 
     name rfoot
     direction -0.0683029 -0.187661 0.979856   
     length 2.41173  
     axis -90 -7.62852e-016 -20   XYZ
    dof rx rz
    limits (-45.0 90.0)
           (-20.0 70.0)
  end
  begin
     id 10 
     name rtoes
     direction -1.53528e-011 -4.21968e-011 1   
     length 1.21082   
     axis -90 -7.62852e-016 -20   XYZ
    dof rx
    limits (-90.0 20.0)
  end
  begin
     id 11 
     name lowerback
     direction 0.013823 0.995423 -0.0945635   
     length 2.04495   
     axis 0 0 0   XYZ
    dof rx ry rz
    limits (-20.0 45.0)
           (-30.0 30.0)
           (-30.0 30.0)
  end
  begin
     id 12 
     name upperback
     direction 0.0276657 0.9994 -0.020853   
     length 2.05008   
     axis 0 0 0   XYZ
    dof rx ry rz
    limits (-20.0 45.0)
           (-30.0 30.0)
           (-30.0 30.0)
  end
  begin
     id 13 
     name thorax
     direction 0.019782 0.999531 0.0233827   
     length 2.06488   
     axis 0 0 0   XYZ
    dof rx ry rz
    limits (-20.0 45.0)
           (-30.0 30.0)
           (-30.0 30.0)
  end
  begin
     id 14 
     name lowerneck
     direction -0.0308541 0.994709 0.0979874   
     length 1.75553   
     axis 0 0 0   XYZ
    dof rx ry rz
    limits (-20.0 45.0)
           (-30.0 30.0)
           (-30.0 30.0)
  end
  begin
     id 15 
     name upperneck
     direction 0.0588398 0.995804 -0.0700903   
     length 1.76878   
     axis 0 0 0   XYZ
    dof rx ry rz
    limits (-20.0 45.0)
           (-30.0 30.0)
           (-30.0 30.0)
  end
  begin
     id 16
     name head
     direction 0.0209966 0.999159 -0.0352225  
     length 1.77193  
     axis 0 0 0   XYZ
    dof rx ry rz
    limits (-20.0 45.0)
           (-30.0 30.0)
           (-30.0 30.0)
  end
  begin
     id 17 
     name lclavicle
     direction 0.938182 0.335073 -0.0868338  
     length 3.58396  
     axis 0 0 0   XYZ
    dof ry rz
    limits (-20.0 10.0)
           (0.0 20.0)
  end
  begin
     id 18 
     name lhumerus
     direction 1 -4.48971e-011 -1.26313e-017   
     length 4.983   
     axis 180 -30 -90   XYZ
    dof rx ry rz
    limits (-60.0 90.0)
           (-90.0 90.0)
           (-90.0 90.0)
  end
  begin
     id 19
     name lradius
     direction 1 -4.48948e-011 -5.89033e-027   
     length 3.48356   
     axis 180 -30 -90   XYZ
    dof rx
    limits (-10.0 170.0)
  end
  begin
     id 20
     name lwrist
     direction 1 -4.48977e-011 -1.48983e-026   
     length 1.74178   
     axis 9.0955e-015 90 90   XYZ
    dof ry
    limits (-180.0 0.0)
 end
  begin
     id 21 
     name lhand
     direction 1 -4.49046e-011 -2.98066e-026   
     length 0.715259   
     axis 1.90115e-014 90 90   XYZ
    dof rx rz
    limits (-90.0 90.0)
           (-45.0 45.0)
  end
  begin
     id 22 
     name lfingers
     direction 1 -4.48907e-011 -5.95731e-026   
     length 0.576661   
     axis 3.80223e-014 90 90   XYZ
    dof rx
    limits (0.0 90.0)
  end
  begin
     id 23
     name lthumb
     direction 0.707107 -6.34963e-011 0.707107   
     length 0.827973   
     axis -90 45 -3.84942e-014   XYZ
    dof rx rz
    limits (-45.0 45.0)
           (-45.0 45.0)
  end
  begin
     id 24 
     name rclavicle
     direction -0.909637 0.398485 -0.11735   
     length 3.44819  
     axis 0 0 0   XYZ 
    dof ry rz
    limits (-10.0 20.0)
           (-20.0 0.0)
  end
  begin
     id 25 
     name rhumerus
     direction -1 -4.48978e-011 -1.09333e-027  
     length 5.2419   
     axis 180 30 90   XYZ
    dof rx ry rz
    limits (-90.0 60.0)
           (-90.0 90.0)
           (-90.0 90.0)
  end
  begin
     id 26 
     name rradius
     direction -1 -4.48953e-011 -7.61841e-027   
     length 3.44417   
     axis 180 30 90   XYZ
    dof rx
    limits (-10.0 170.0)
  end
  begin
     id 27 
     name rwrist
     direction -1 -4.48977e-011 -1.48983e-026   
     length 1.72209   
     axis 9.0955e-015 -90 -90   XYZ
    dof ry
    limits (-180.0 0.0)
  end
  begin
     id 28
     name rhand
     direction -1 -4.49027e-011 -2.98038e-026   
     length 0.622529   
     axis 1.90115e-014 -90 -90   XYZ
    dof rx rz
    limits (-90.0 90.0)
           (-45.0 45.0)
  end
  begin
     id 29
     name rfingers
     direction -1 -4.48838e-011 -5.95531e-026   
     length 0.501899   
     axis 3.80223e-014 -90 -90   XYZ
    dof rx
    limits (0.0 90.0)
  end
  begin
     id 30
     name rthumb
     direction -0.707107 -6.34937e-011 0.707107   
     length 0.720629   
     axis -90 -45 3.84942e-014   XYZ
    dof rx rz
    limits (-45.0 45.0)
           (-45.0 45.0)
  end
:hierarchy
  begin
    root lhipjoint rhipjoint lowerback
    lhipjoint lfemur
    lfemur ltibia
    ltibia lfoot
    lfoot ltoes
    rhipjoint rfemur
    rfemur rtibia
    rtibia rfoot
    rfoot rtoes
    lowerback upperback
    upperback thorax
    thorax lowerneck lclavicle rclavicle
    lowerneck upperneck
    upperneck head
    lclavicle lhumerus
    lhumerus lradius
    lradius lwrist
    lwrist lhand lthumb
    lhand lfingers
    rclavicle rhumerus
    rhumerus rradius
    rradius rwrist
    rwrist rhand rthumb
    rhand rfingers
  end

#!OML:ASF F:\VICON\USERDATA\Patient Classification 1\PLAYGROUND\JustinFriday\JustinFriday.ASF
:FULLY-SPECIFIED
:DEGREES
1059
root 28.2102 28.1387 -4.1531 -38.2318 -0.481477 -2.08159
lowerback 40.829 -1.07351 0.411641
upperback 17.6977 -1.30361 -2.14414
thorax 0.018577 -0.512511 -2.03481
lowerneck 12.3272 -13.1812 -16.9468
upperneck -2.41826 -19.4377 15.5879
head 0.526091 -10.1526 7.44222
rclavicle 1.15295e-014 1.74931e-014
rhumerus 59.3693 -20.6412 -70.4933
rradius 116.633
rwrist 9.4785
rhand -25.6575 -19.8287
rfingers 7.12502
rthumb 0.876561 -49.8067
lclavicle 1.15295e-014 1.74931e-014
lhumerus 42.2114 42.4783 40.0895
lradius 102.848
lwrist 2.5595
lhand -25.139 -2.73572
lfingers 7.12502
lthumb 1.37732 27.2396
rfemur -32.8494 -4.47804 18.0026
rtibia 73.4166
rfoot 10.9986 -13.0128
rtoes 13.3239
lfemur -34.9084 5.07963 -4.41053
ltibia 64.8657
lfoot 14.2571 -9.63467
ltoes -1.42854
1060
root 28.2104 28.1524 -4.14868 -38.2005 -0.281433 -2.06461
lowerback 40.7864 -1.12585 0.328479
upperback 17.6669 -1.39672 -2.16441
thorax -0.00604797 -0.563052 -1.98216
lowerneck 11.9514 -13.2024 -17.1655
upperneck -1.91639 -19.481 15.6039
head 0.761801 -10.1639 7.41588
rclavicle 1.19271e-014 -1.59028e-015
rhumerus 59.3518 -20.7199 -70.256
rradius 116.553
rwrist 9.35972
rhand -25.7116 -19.8756
rfingers 7.12502
rthumb 0.824333 -49.8537
lclavicle 1.19271e-014 -1.59028e-015
lhumerus 42.2161 42.3708 40.2994
lradius 102.924
lwrist 2.47934
lhand -25.0377 -2.74172
lfingers 7.12502
lthumb 1.47514 27.2329
rfemur -32.5939 -4.6873 17.8752
rtibia 74.4344
rfoot 11.1382 -13.0504
rtoes 12.896
lfemur -34.8861 4.829 -4.67213
ltibia 64.1723
lfoot 14.2254 -9.32697
ltoes -0.957804
1061
root 28.2124 28.1583 -4.14192 -38.0544 -0.125251 -2.01962
lowerback 40.8396 -1.15215 0.119157
upperback 17.3592 -1.50679 -2.092
thorax -0.361209 -0.63933 -1.75604
lowerneck 12.0879 -13.0283 -17.7521
upperneck -1.51315 -19.3771 15.7186
head 0.909647 -10.1199 7.5278
rclavicle -1.92821e-014 -2.38542e-015
rhumerus 59.0115 -20.4763 -70.1707
rradius 116.93
rwrist 9.26487
rhand -25.4002 -20.0711
rfingers 7.12502
rthumb 1.12503 -50.0479
lclavicle -1.92821e-014 -2.38542e-015
lhumerus 41.8009 42.1452 40.253
lradius 102.863
lwrist 2.67117
lhand -24.9234 -3.19004
lfingers 7.12502
lthumb 1.58555 26.7838
rfemur -32.574 -4.84209 17.7408
rtibia 75.486
rfoot 11.4496 -12.9178
rtoes 12.122
lfemur -34.9777 4.66953 -4.90182
ltibia 63.5272
lfoot 14.2024 -8.9986
ltoes -0.527732
1062
root 28.214 28.1653 -4.14164 -37.8956 0.0285291 -1.84101
lowerback 40.9235 -1.11362 -0.46289
upperback 16.9241 -1.6753 -1.89017
thorax -0.852155 -0.776754 -1.17975
lowerneck 12.9057 -12.6355 -18.6855
upperneck -1.60744 -19.0983 15.7913
head 0.80287 -10.0048 7.76751
rclavicle -5.36719e-015 -1.19271e-014
rhumerus 58.6079 -19.8418 -69.8886
rradius 117.365
rwrist 8.98148
rhand -25.0776 -20.3367
rfingers 7.12502
rthumb 1.43664 -50.3116
lclavicle -5.36719e-015 -1.19271e-014
lhumerus 40.7537 42.0953 39.9065
lradius 102.843
lwrist 2.61306
lhand -25.011 -3.6451
lfingers 7.12502
lthumb 1.50096 26.3294
rfemur -32.5892 -4.99167 17.5126
rtibia 76.5257
rfoot 12.4654 -12.0891
rtoes 9.77071
lfemur -35.0407 4.6158 -5.21889
ltibia 62.9246
lfoot 14.1982 -8.69654
ltoes 0.106
1063
root 28.2147 28.175 -4.14501 -37.8219 0.0924939 -1.74424
lowerback 40.9249 -0.971384 -0.447077
upperback 17.0254 -1.4906 -1.95551
thorax -0.738804 -0.676186 -1.32176
lowerneck 12.9899 -12.8408 -18.0053
upperneck -2.13082 -19.2496 15.8001
head 0.598692 -10.0829 7.70037
rclavicle -4.17448e-015 -2.38542e-015
rhumerus 58.6596 -20.5701 -69.9308
rradius 117.483
rwrist 8.86796
rhand -25.0494 -20.2219
rfingers 7.12502
rthumb 1.46382 -50.1967
lclavicle -4.17448e-015 -2.38542e-015
lhumerus 42.1114 41.8529 40.9446
lradius 102.814
lwrist 2.20465
lhand -25.0887 -3.7337
lfingers 7.12502
lthumb 1.42586 26.2413
rfemur -32.4661 -5.10748 17.4249
rtibia 77.5432
rfoot 13.0102 -11.6011
rtoes 9.32038
lfemur -35.0144 4.54894 -5.40097
ltibia 62.3757
lfoot 14.1997 -8.33952
ltoes 1.5496
1064
root 28.2144 28.1855 -4.14622 -37.7816 0.0624938 -1.87812
lowerback 40.9541 -0.980656 -0.358356
upperback 16.9472 -1.46992 -1.94765
thorax -0.835717 -0.66074 -1.36454
lowerneck 12.0877 -13.1382 -18.4212
upperneck -0.933198 -19.6615 15.9286
head 1.21504 -10.2709 7.62671
rclavicle 1.51076e-014 4.77083e-015
rhumerus 58.4813 -20.7363 -69.8844
rradius 117.383
rwrist 8.86169
rhand -25.2341 -19.9694
rfingers 7.12502
rthumb 1.28547 -49.9453
lclavicle 1.51076e-014 4.77083e-015
lhumerus 42.5966 41.6464 41.3521
lradius 102.862
lwrist 2.07649
lhand -25.1869 -3.69346
lfingers 7.12502
lthumb 1.33104 26.2821
rfemur -32.2946 -5.22902 17.5839
rtibia 78.5443
rfoot 12.932 -11.8644
rtoes 10.3436
lfemur -34.9907 4.40268 -5.29797
ltibia 61.8899
lfoot 14.0337 -8.10518
ltoes 2.58275
